<svg xmlns="http://www.w3.org/2000/svg" viewBox="0 0 320 220">
<defs><linearGradient id="wing" x1="0" y1="0" x2="0" y2="1"><stop stop-color="#F7FAFD"/><stop offset="1" stop-color="#9BAFC1"/></linearGradient><radialGradient id="lens"><stop stop-color="#65E5FF"/><stop offset="1" stop-color="#0A1825"/></radialGradient></defs><ellipse cx="160" cy="190" rx="118" ry="8" fill="#000" opacity=".22"/>
<path d="M151 111 L30 102 L24 110 L143 132 L146 157 L132 179 L143 183 L160 165 L177 183 L188 179 L174 157 L177 132 L296 110 L290 102 L169 111 L166 51 L154 51Z" fill="url(#wing)" stroke="#71879A" stroke-width="2.5" stroke-linejoin="round"/>
<path d="M146 112 Q160 100 174 112 L171 148 Q160 158 149 148Z" fill="#D7E2EC" stroke="#8499AB" stroke-width="2"/><path d="M155 54 L160 38 L165 54" fill="#8EA4B7"/><path d="M35 104 L68 109 M252 109 L285 104" stroke="#71879A" stroke-width="3"/><path d="M145 132 L175 132" stroke="#657C90" stroke-width="3"/><rect x="151" y="151" width="18" height="21" rx="5" fill="#142838" stroke="#91A6B8" stroke-width="2"/><circle cx="160" cy="161" r="6" fill="url(#lens)"/><path d="M150 116 L170 116" stroke="#FFFFFF" stroke-width="2" opacity=".8"/><path d="M155 81 L165 81" stroke="#6B8195" stroke-width="2"/>
</svg>