<svg xmlns="http://www.w3.org/2000/svg" viewBox="0 0 320 220">
<defs><linearGradient id="body" x1="0" y1="0" x2="0" y2="1"><stop stop-color="#D9E3EC"/><stop offset="1" stop-color="#64798C"/></linearGradient><radialGradient id="lens"><stop stop-color="#68E6FF"/><stop offset=".4" stop-color="#25465B"/><stop offset="1" stop-color="#080F18"/></radialGradient></defs><ellipse cx="160" cy="194" rx="126" ry="8" fill="#000" opacity=".25"/>
<g stroke="#73899C" stroke-width="13" stroke-linecap="round"><path d="M145 92 L48 48 M175 92 L272 48 M145 108 L48 152 M175 108 L272 152"/><path d="M145 92 L48 48 M175 92 L272 48 M145 108 L48 152 M175 108 L272 152" stroke="#B6C6D3" stroke-width="3"/></g>
<g fill="#182938" stroke="#A2B4C3" stroke-width="2"><rect x="31" y="39" width="35" height="18" rx="5"/><rect x="254" y="39" width="35" height="18" rx="5"/><rect x="31" y="143" width="35" height="18" rx="5"/><rect x="254" y="143" width="35" height="18" rx="5"/></g>
<g stroke="#C5D2DD" stroke-width="3"><path d="M12 38 L85 38 M235 38 L308 38 M12 162 L85 162 M235 162 L308 162"/></g>
<path d="M111 75 Q160 59 209 75 L219 124 Q160 143 101 124Z" fill="url(#body)" stroke="#6D8295" stroke-width="2.5"/><path d="M128 79 L192 79 L199 90 L121 90Z" fill="#F0F5F9"/><rect x="137" y="121" width="46" height="24" rx="5" fill="#283C4E" stroke="#9CB0C0" stroke-width="2"/><path d="M145 143 L135 166 M175 143 L185 166" stroke="#8499AA" stroke-width="5" stroke-linecap="round"/><path d="M126 166 L194 166" stroke="#AFC0CD" stroke-width="4" stroke-linecap="round"/><rect x="133" y="143" width="54" height="35" rx="7" fill="#101E2A" stroke="#8197A9" stroke-width="2"/><circle cx="147" cy="160" r="7" fill="url(#lens)"/><circle cx="173" cy="160" r="7" fill="url(#lens)"/><circle cx="160" cy="160" r="3" fill="#D9A34B"/><path d="M114 101 L126 101 M194 101 L206 101" stroke="#D99C42" stroke-width="4" stroke-linecap="round"/>
</svg>