<svg xmlns="http://www.w3.org/2000/svg" width="1600" height="1400" viewBox="0 0 1600 1400"><rect width="1600" height="1400" fill="#101722"/><text x="60" y="70" fill="#FFFFFF" font-family="B612,Arial" font-size="36" font-weight="700">BlueSky PRO — Figma Visual Tokens</text><text x="60" y="105" fill="#BFBFBF" font-family="IBM Plex Sans Condensed,Arial" font-size="17">Reference board — all existing candidates preserved; final visual selection remains open.</text><text x="60" y="160" fill="#FFFFFF" font-family="B612,Arial" font-size="24" font-weight="700">COLORS</text><rect x="60" y="190" width="60" height="32" fill="#000000"/><text x="140" y="213" fill="#FFFFFF" font-family="Arial" font-size="15">MAIN BLACK</text><text x="390" y="213" fill="#BFBFBF" font-family="monospace" font-size="15">#000000</text><text x="560" y="213" fill="#BFBFBF" font-family="Arial" font-size="14">current</text><rect x="60" y="233" width="60" height="32" fill="#FFFFFF"/><text x="140" y="256" fill="#FFFFFF" font-family="Arial" font-size="15">PRIMARY TEXT</text><text x="390" y="256" fill="#BFBFBF" font-family="monospace" font-size="15">#FFFFFF</text><text x="560" y="256" fill="#BFBFBF" font-family="Arial" font-size="14">current</text><rect x="60" y="276" width="60" height="32" fill="#BFBFBF"/><text x="140" y="299" fill="#FFFFFF" font-family="Arial" font-size="15">SECONDARY TEXT</text><text x="390" y="299" fill="#BFBFBF" font-family="monospace" font-size="15">#BFBFBF</text><text x="560" y="299" fill="#BFBFBF" font-family="Arial" font-size="14">current</text><rect x="60" y="319" width="60" height="32" fill="#7F7F7F"/><text x="140" y="342" fill="#FFFFFF" font-family="Arial" font-size="15">MUTED</text><text x="390" y="342" fill="#BFBFBF" font-family="monospace" font-size="15">#7F7F7F</text><text x="560" y="342" fill="#BFBFBF" font-family="Arial" font-size="14">current</text><rect x="60" y="362" width="60" height="32" fill="#64FF00"/><text x="140" y="385" fill="#FFFFFF" font-family="Arial" font-size="15">GREEN</text><text x="390" y="385" fill="#BFBFBF" font-family="monospace" font-size="15">#64FF00</text><text x="560" y="385" fill="#BFBFBF" font-family="Arial" font-size="14">normal / green zone</text><rect x="60" y="405" width="60" height="32" fill="#FFD339"/><text x="140" y="428" fill="#FFFFFF" font-family="Arial" font-size="15">AMBER</text><text x="390" y="428" fill="#BFBFBF" font-family="monospace" font-size="15">#FFD339</text><text x="560" y="428" fill="#BFBFBF" font-family="Arial" font-size="14">caution / amber zone</text><rect x="60" y="448" width="60" height="32" fill="#FF1E14"/><text x="140" y="471" fill="#FFFFFF" font-family="Arial" font-size="15">RED</text><text x="390" y="471" fill="#BFBFBF" font-family="monospace" font-size="15">#FF1E14</text><text x="560" y="471" fill="#BFBFBF" font-family="Arial" font-size="14">warning / critical</text><rect x="60" y="491" width="60" height="32" fill="#32FFFF"/><text x="140" y="514" fill="#FFFFFF" font-family="Arial" font-size="15">CYAN</text><text x="390" y="514" fill="#BFBFBF" font-family="monospace" font-size="15">#32FFFF</text><text x="560" y="514" fill="#BFBFBF" font-family="Arial" font-size="14">navigation / information</text><rect x="60" y="534" width="60" height="32" fill="#FF32FF"/><text x="140" y="557" fill="#FFFFFF" font-family="Arial" font-size="15">MAGENTA</text><text x="390" y="557" fill="#BFBFBF" font-family="monospace" font-size="15">#FF32FF</text><text x="560" y="557" fill="#BFBFBF" font-family="Arial" font-size="14">target / selected / commanded</text><rect x="60" y="577" width="60" height="32" fill="#006EAA"/><text x="140" y="600" fill="#FFFFFF" font-family="Arial" font-size="15">PFD SKY</text><text x="390" y="600" fill="#BFBFBF" font-family="monospace" font-size="15">#006EAA</text><text x="560" y="600" fill="#BFBFBF" font-family="Arial" font-size="14">PFD only</text><rect x="60" y="620" width="60" height="32" fill="#5F2A05"/><text x="140" y="643" fill="#FFFFFF" font-family="Arial" font-size="15">PFD GROUND</text><text x="390" y="643" fill="#BFBFBF" font-family="monospace" font-size="15">#5F2A05</text><text x="560" y="643" fill="#BFBFBF" font-family="Arial" font-size="14">PFD only</text><rect x="60" y="663" width="60" height="32" fill="#050A12"/><text x="140" y="686" fill="#FFFFFF" font-family="Arial" font-size="15">OLD BG</text><text x="390" y="686" fill="#BFBFBF" font-family="monospace" font-size="15">#050A12</text><text x="560" y="686" fill="#BFBFBF" font-family="Arial" font-size="14">previous baseline</text><rect x="60" y="706" width="60" height="32" fill="#08111D"/><text x="140" y="729" fill="#FFFFFF" font-family="Arial" font-size="15">OLD PANEL</text><text x="390" y="729" fill="#BFBFBF" font-family="monospace" font-size="15">#08111D</text><text x="560" y="729" fill="#BFBFBF" font-family="Arial" font-size="14">previous baseline</text><rect x="60" y="749" width="60" height="32" fill="#0C1725"/><text x="140" y="772" fill="#FFFFFF" font-family="Arial" font-size="15">OLD CARD</text><text x="390" y="772" fill="#BFBFBF" font-family="monospace" font-size="15">#0C1725</text><text x="560" y="772" fill="#BFBFBF" font-family="Arial" font-size="14">previous baseline</text><rect x="60" y="792" width="60" height="32" fill="#111F30"/><text x="140" y="815" fill="#FFFFFF" font-family="Arial" font-size="15">OLD HOVER</text><text x="390" y="815" fill="#BFBFBF" font-family="monospace" font-size="15">#111F30</text><text x="560" y="815" fill="#BFBFBF" font-family="Arial" font-size="14">previous baseline</text><rect x="60" y="835" width="60" height="32" fill="#168BFF"/><text x="140" y="858" fill="#FFFFFF" font-family="Arial" font-size="15">OLD BLUE</text><text x="390" y="858" fill="#BFBFBF" font-family="monospace" font-size="15">#168BFF</text><text x="560" y="858" fill="#BFBFBF" font-family="Arial" font-size="14">previous baseline</text><rect x="60" y="878" width="60" height="32" fill="#35B9FF"/><text x="140" y="901" fill="#FFFFFF" font-family="Arial" font-size="15">OLD CYAN</text><text x="390" y="901" fill="#BFBFBF" font-family="monospace" font-size="15">#35B9FF</text><text x="560" y="901" fill="#BFBFBF" font-family="Arial" font-size="14">previous baseline</text><rect x="60" y="921" width="60" height="32" fill="#39D98A"/><text x="140" y="944" fill="#FFFFFF" font-family="Arial" font-size="15">OLD GREEN</text><text x="390" y="944" fill="#BFBFBF" font-family="monospace" font-size="15">#39D98A</text><text x="560" y="944" fill="#BFBFBF" font-family="Arial" font-size="14">previous baseline</text><rect x="60" y="964" width="60" height="32" fill="#FFC857"/><text x="140" y="987" fill="#FFFFFF" font-family="Arial" font-size="15">OLD AMBER</text><text x="390" y="987" fill="#BFBFBF" font-family="monospace" font-size="15">#FFC857</text><text x="560" y="987" fill="#BFBFBF" font-family="Arial" font-size="14">previous baseline</text><rect x="60" y="1007" width="60" height="32" fill="#FF5C6C"/><text x="140" y="1030" fill="#FFFFFF" font-family="Arial" font-size="15">OLD RED</text><text x="390" y="1030" fill="#BFBFBF" font-family="monospace" font-size="15">#FF5C6C</text><text x="560" y="1030" fill="#BFBFBF" font-family="Arial" font-size="14">previous baseline</text><rect x="60" y="1050" width="60" height="32" fill="#00FF00"/><text x="140" y="1073" fill="#FFFFFF" font-family="Arial" font-size="15">NVIS GREEN A</text><text x="390" y="1073" fill="#BFBFBF" font-family="monospace" font-size="15">#00FF00</text><text x="560" y="1073" fill="#BFBFBF" font-family="Arial" font-size="14">night / NVIS</text><rect x="60" y="1093" width="60" height="32" fill="#00C000"/><text x="140" y="1116" fill="#FFFFFF" font-family="Arial" font-size="15">NVIS GREEN B</text><text x="390" y="1116" fill="#BFBFBF" font-family="monospace" font-size="15">#00C000</text><text x="560" y="1116" fill="#BFBFBF" font-family="Arial" font-size="14">night / NVIS</text><rect x="60" y="1136" width="60" height="32" fill="#FF0000"/><text x="140" y="1159" fill="#FFFFFF" font-family="Arial" font-size="15">NIGHT RED</text><text x="390" y="1159" fill="#BFBFBF" font-family="monospace" font-size="15">#FF0000</text><text x="560" y="1159" fill="#BFBFBF" font-family="Arial" font-size="14">night / NVIS</text><text x="900" y="160" fill="#FFFFFF" font-family="B612,Arial" font-size="24" font-weight="700">TYPOGRAPHY</text><text x="900" y="205" fill="#FFFFFF" font-family="Arial" font-size="36" font-weight="700">B612 Mono Bold — 36 primary flight data</text><text x="900" y="250" fill="#FFFFFF" font-family="Arial" font-size="22" font-weight="700">B612 Bold — 22 main headers</text><text x="900" y="295" fill="#64FF00" font-family="Arial" font-size="20" font-weight="700">B612 Mono Bold — 20 status / zone</text><text x="900" y="340" fill="#32FFFF" font-family="Arial" font-size="20" font-weight="700">B612 Mono Bold — 20 navigation</text><text x="900" y="385" fill="#FF32FF" font-family="Arial" font-size="20" font-weight="700">B612 Mono Bold — 20 target / selected</text><text x="900" y="430" fill="#FFFFFF" font-family="Arial" font-size="16" font-weight="700">B612 Bold — 16 section headers</text><text x="900" y="475" fill="#BFBFBF" font-family="Arial" font-size="13" font-weight="700">B612 — 13 labels</text><text x="900" y="520" fill="#BFBFBF" font-family="Arial" font-size="13" font-weight="700">B612 Mono — 13 secondary numeric</text><text x="900" y="565" fill="#7F7F7F" font-family="Arial" font-size="12" font-weight="700">IBM Plex Sans Condensed — 12 service</text><text x="900" y="610" fill="#7F7F7F" font-family="Arial" font-size="11" font-weight="700">IBM Plex Sans Condensed — 11 service labels</text><text x="900" y="655" fill="#FFFFFF" font-family="Arial" font-size="18" font-weight="700">Inter — candidate existing UI candidate</text><text x="900" y="700" fill="#FFFFFF" font-family="Arial" font-size="18" font-weight="700">Inter Tight 600/700 — candidate existing header candidate</text><text x="60" y="1230" fill="#FFFFFF" font-family="B612,Arial" font-size="24" font-weight="700">NAVIGATION</text><text x="60" y="1270" fill="#64FF00" font-family="monospace" font-size="25" font-weight="700">HGT 30 m</text><text x="300" y="1270" fill="#32FFFF" font-family="monospace" font-size="25" font-weight="700">ALT 115 m</text><text x="560" y="1270" fill="#FFFFFF" font-family="monospace" font-size="25" font-weight="700">GS 12.5 m/s</text><text x="900" y="1270" fill="#FFD339" font-family="monospace" font-size="25" font-weight="700">CLIMB 2.4 m/s</text><text x="60" y="1310" fill="#BFBFBF" font-family="monospace" font-size="17">HGT &lt; 100 m → HGT XX m | HGT ≥ 100 m → ALT XXX m | speed display: m/s ↔ km/h</text><text x="60" y="1345" fill="#7F7F7F" font-family="Arial" font-size="15">No ALTITUDE heading. No CLIMB RATE / DESCENT RATE. No + / − signs.</text></svg>